<svg width="29" height="29" viewBox="0 0 29 29" fill="none" xmlns="http://www.w3.org/2000/svg">
<g clip-path="url(#clip0_25_2918)">
<path d="M14.7053 2.53232C18.4627 2.53232 18.9076 2.5488 20.3853 2.61472C21.7585 2.67514 22.5001 2.90585 22.9945 3.09811C23.6482 3.3508 24.1206 3.65842 24.6095 4.14731C25.1039 4.64169 25.406 5.10861 25.6587 5.7623C25.851 6.25668 26.0817 7.00375 26.1421 8.37155C26.208 9.85471 26.2245 10.2997 26.2245 14.0515C26.2245 17.8088 26.208 18.2538 26.1421 19.7314C26.0817 21.1047 25.851 21.8463 25.6587 22.3407C25.406 22.9944 25.0984 23.4668 24.6095 23.9557C24.1151 24.45 23.6482 24.7522 22.9945 25.0049C22.5001 25.1971 21.7531 25.4278 20.3853 25.4883C18.9021 25.5542 18.4572 25.5706 14.7053 25.5706C10.948 25.5706 10.5031 25.5542 9.02539 25.4883C7.6521 25.4278 6.91052 25.1971 6.41614 25.0049C5.76245 24.7522 5.29004 24.4445 4.80115 23.9557C4.30676 23.4613 4.00464 22.9944 3.75195 22.3407C3.55969 21.8463 3.32898 21.0992 3.26856 19.7314C3.20264 18.2483 3.18616 17.8033 3.18616 14.0515C3.18616 10.2942 3.20264 9.84921 3.26856 8.37155C3.32898 6.99826 3.55969 6.25668 3.75195 5.7623C4.00464 5.10861 4.31226 4.6362 4.80115 4.14731C5.29553 3.65292 5.76245 3.3508 6.41614 3.09811C6.91052 2.90585 7.65759 2.67514 9.02539 2.61472C10.5031 2.5488 10.948 2.53232 14.7053 2.53232ZM14.7053 -3.05176e-05C10.8876 -3.05176e-05 10.4097 0.016449 8.91004 0.0823669C7.41589 0.148285 6.38867 0.389984 5.49878 0.736053C4.57044 1.0986 3.78491 1.57651 3.00488 2.36203C2.21936 3.14206 1.74146 3.92758 1.37891 4.85043C1.03284 5.74582 0.791138 6.76755 0.72522 8.26169C0.659302 9.76682 0.642822 10.2447 0.642822 14.0625C0.642822 17.8802 0.659302 18.3581 0.72522 19.8578C0.791138 21.3519 1.03284 22.3791 1.37891 23.269C1.74146 24.1974 2.21936 24.9829 3.00488 25.7629C3.78491 26.5429 4.57044 27.0263 5.49329 27.3834C6.38867 27.7295 7.4104 27.9712 8.90454 28.0371C10.4042 28.103 10.8821 28.1195 14.6998 28.1195C18.5176 28.1195 18.9955 28.103 20.4951 28.0371C21.9893 27.9712 23.0165 27.7295 23.9064 27.3834C24.8292 27.0263 25.6147 26.5429 26.3948 25.7629C27.1748 24.9829 27.6582 24.1974 28.0153 23.2745C28.3613 22.3791 28.603 21.3574 28.6689 19.8633C28.7349 18.3636 28.7513 17.8857 28.7513 14.068C28.7513 10.2502 28.7349 9.77231 28.6689 8.27267C28.603 6.77853 28.3613 5.75131 28.0153 4.86142C27.6692 3.92758 27.1913 3.14206 26.4058 2.36203C25.6257 1.582 24.8402 1.0986 23.9174 0.741547C23.022 0.395477 22.0002 0.153778 20.5061 0.0878601C19.001 0.016449 18.5231 -3.05176e-05 14.7053 -3.05176e-05Z" fill="black"/>
<path d="M14.7053 6.83905C10.7173 6.83905 7.48181 10.0745 7.48181 14.0626C7.48181 18.0506 10.7173 21.2861 14.7053 21.2861C18.6934 21.2861 21.9288 18.0506 21.9288 14.0626C21.9288 10.0745 18.6934 6.83905 14.7053 6.83905ZM14.7053 18.7482C12.118 18.7482 10.0197 16.6498 10.0197 14.0626C10.0197 11.4753 12.118 9.37689 14.7053 9.37689C17.2926 9.37689 19.391 11.4753 19.391 14.0626C19.391 16.6498 17.2926 18.7482 14.7053 18.7482Z" fill="black"/>
<path d="M23.9009 6.55335C23.9009 7.48719 23.1428 8.23975 22.2145 8.23975C21.2806 8.23975 20.5281 7.48169 20.5281 6.55335C20.5281 5.61951 21.2861 4.86694 22.2145 4.86694C23.1428 4.86694 23.9009 5.625 23.9009 6.55335Z" fill="black"/>
</g>
<defs>
<clipPath id="clip0_25_2918">
<rect width="28.125" height="28.125" fill="white" transform="translate(0.642822 -3.05176e-05)"/>
</clipPath>
</defs>
</svg>
