<svg width="31" height="30" viewBox="0 0 31 30" fill="none" xmlns="http://www.w3.org/2000/svg">
<g clip-path="url(#clip0_25_2924)">
<path d="M29.7548 9.00012C29.7548 9.00012 29.4618 6.93176 28.5594 6.02356C27.4169 4.82825 26.1395 4.82239 25.5536 4.75208C21.3583 4.44739 15.0594 4.44739 15.0594 4.44739H15.0477C15.0477 4.44739 8.7489 4.44739 4.55359 4.75208C3.96765 4.82239 2.69031 4.82825 1.54773 6.02356C0.645386 6.93176 0.358276 9.00012 0.358276 9.00012C0.358276 9.00012 0.0535889 11.4318 0.0535889 13.8575V16.131C0.0535889 18.5568 0.352417 20.9884 0.352417 20.9884C0.352417 20.9884 0.645386 23.0568 1.54187 23.965C2.68445 25.1603 4.18445 25.1193 4.85242 25.2482C7.25476 25.4767 15.0536 25.547 15.0536 25.547C15.0536 25.547 21.3583 25.5353 25.5536 25.2365C26.1395 25.1661 27.4169 25.1603 28.5594 23.965C29.4618 23.0568 29.7548 20.9884 29.7548 20.9884C29.7548 20.9884 30.0536 18.5626 30.0536 16.131V13.8575C30.0536 11.4318 29.7548 9.00012 29.7548 9.00012ZM11.954 18.8907V10.4591L20.0575 14.6896L11.954 18.8907Z" fill="black"/>
</g>
<defs>
<clipPath id="clip0_25_2924">
<rect width="30" height="30" fill="white" transform="translate(0.0534668 -3.05176e-05)"/>
</clipPath>
</defs>
</svg>
